<?xml version="1.0"?>
<svg xmlns="http://www.w3.org/2000/svg" id="Capa_1" enable-background="new 0 0 472 472" height="512px" viewBox="0 0 472 472" width="512px"><g><circle cx="180" cy="192" r="12" data-original="#000000" class="active-path" data-old_color="#000000" fill="#206C79"/><circle cx="252" cy="192" r="12" data-original="#000000" class="active-path" data-old_color="#000000" fill="#206C79"/><path d="m440 328c.004-26.51-21.483-48.003-47.992-48.008-26.51-.004-48.003 21.483-48.008 47.992-.004 23.425 16.902 43.432 40 47.336v8.68c-.045 39.746-32.254 71.955-72 72h-16c-39.746-.045-71.955-32.254-72-72v-8.257c66.866-4.143 120-59.851 120-127.743v-32.447c8.755-5.474 15.823-13.264 20.422-22.509l9.4-18.792c17.173-34.452 26.133-72.413 26.178-110.908v-55.344c0-4.418-3.582-8-8-8-1.792 0-3.533.602-4.942 1.709l-93.658 73.591c-10.335 8.071-17.486 19.534-20.192 32.365l-17.856-8.928c-24.789-12.322-53.919-12.322-78.708 0l-17.856 8.928c-2.705-12.83-9.855-24.293-20.188-32.365l-93.658-73.591c-3.474-2.729-8.504-2.125-11.233 1.349-1.107 1.41-1.709 3.15-1.709 4.942v55.344c.046 38.495 9.008 76.456 26.182 110.908l9.4 18.792c4.597 9.244 11.664 17.035 20.418 22.509v32.447c0 67.892 53.134 123.6 120 127.743v8.257c.055 48.578 39.422 87.945 88 88h16c48.578-.055 87.945-39.422 88-88v-8.679c23.077-3.93 39.968-23.912 40-47.321zm-120-120.4v-24.652l8 5.333v17.343c-2.591.933-5.272 1.595-8 1.976zm39.507-40.5-9.4 18.792c-1.623 3.247-3.678 6.26-6.107 8.958v-10.85c0-2.675-1.337-5.172-3.562-6.656l-20.438-13.625v-23.443c14.702-10.001 26.599-23.599 34.557-39.5l29.443-58.888v21.456c-.043 36.013-8.426 71.526-24.493 103.756zm-215.507-47.77v.67c0 4.418 3.582 8 8 8 1.242 0 2.467-.289 3.578-.845l28.222-14.111c20.283-10.082 44.117-10.082 64.4 0l28.223 14.111c3.952 1.976 8.757.373 10.733-3.579.555-1.11.844-2.335.844-3.576v-.67c-.035-12.283 5.607-23.892 15.287-31.453l65.6-51.545-28.641 57.288c-6.856 13.694-17.161 25.366-29.9 33.865l-2.788 1.859c-2.224 1.485-3.559 3.982-3.558 6.656v78.515l-28.619 74.408c-5.118 13.127-17.383 22.096-31.444 22.993l-19.937-26.582v-13.355c6.731-.111 13.351-1.725 19.378-4.724 11.279-5.64 15.85-19.355 10.21-30.634-3.868-7.735-11.773-12.62-20.421-12.621h-34.334c-12.61.001-22.832 10.224-22.832 22.834 0 8.648 4.886 16.553 12.621 20.421 6.027 2.999 12.647 4.613 19.378 4.724v13.355l-19.937 26.582c-14.061-.897-26.326-9.866-31.444-22.993l-28.619-74.408v-78.515c0-2.675-1.337-5.173-3.563-6.656l-2.787-1.859c-12.739-8.499-23.044-20.171-29.9-33.865l-28.64-57.288 65.6 51.545c9.681 7.561 15.325 19.17 15.29 31.453zm92.223 133.614c-4.021 2.004-8.451 3.05-12.944 3.056h-14.558c-4.493-.006-8.923-1.051-12.944-3.056-3.375-1.688-4.742-5.793-3.054-9.168 1.158-2.314 3.523-3.776 6.11-3.776h34.334c3.774.001 6.833 3.06 6.832 6.834 0 2.588-1.462 4.953-3.776 6.11zm-20.223 48.389 8 10.667h-16zm-104-93.733c-2.728-.382-5.409-1.046-8-1.98v-17.339l8-5.333zm-30.112-21.715-9.4-18.792c-16.064-32.228-24.445-67.739-24.488-103.749v-21.456l29.443 58.887c7.958 15.901 19.855 29.5 34.557 39.501v23.443l-20.438 13.625c-2.225 1.484-3.562 3.982-3.562 6.656v10.85c-2.431-2.698-4.487-5.713-6.112-8.961zm22.112 62.115v-25.672c3.433.855 6.939 1.385 10.472 1.583l27.213 70.756c7.796 20.025 27.045 33.245 48.534 33.333h51.562c21.489-.088 40.738-13.308 48.534-33.333l27.213-70.756c3.533-.198 7.039-.728 10.472-1.583v25.672c0 61.856-50.144 112-112 112s-112-50.144-112-112zm288 112c-17.673 0-32-14.327-32-32s14.327-32 32-32 32 14.327 32 32c-.02 17.665-14.335 31.98-32 32z" data-original="#000000" class="active-path" data-old_color="#000000" fill="#206C79"/><circle cx="392" cy="328" r="16" data-original="#000000" class="active-path" data-old_color="#000000" fill="#206C79"/></g> </svg>
