<?xml version="1.0"?>
<svg xmlns="http://www.w3.org/2000/svg" id="Capa_1" enable-background="new 0 0 480 480" height="512px" viewBox="0 0 480 480" width="512px" class=""><g><path d="m472 0h-464c-4.418 0-8 3.582-8 8v464c0 4.418 3.582 8 8 8h464c4.418 0 8-3.582 8-8v-464c0-4.418-3.582-8-8-8zm-231.542 348.228-14.115 14.115c-2.697 2.696-3.116 6.922-1 10.095l14.657 21.984v69.578h-3.719l-15.239-22.859c-8.517-12.75-13.056-27.742-13.042-43.075v-20.066c-.015-13.076-3.06-25.971-8.894-37.674l-7.618-15.237-15.8-55.285c-.268-.938-.706-1.82-1.292-2.6l-18.976-25.3 19.533-8.681 27.788 20.841 31.6 31.6.015.013c.058.058.123.11.183.166.145.136.29.271.443.394l.018.017 16.821 13.446c-4.884 13.666-8.385 27.787-10.452 42.151zm-56.748-148.228h4.445l25.125 31.406-6.03 6.031-23.25-17.437v-16c-.001-1.339-.098-2.675-.29-4zm6.759-34.881-1.5 6c-1.628 6.555-6.988 11.519-13.648 12.641-10.9-10.441-28.122-10.335-38.893.238h-79.676c1.873-5.851 6.912-10.127 12.99-11.021l35.39-5.059c1.713-.245 3.301-1.039 4.525-2.263l14.63-14.63c4.51-4.483 10.605-7.007 16.963-7.025h32.73c9.38-.009 16.991 7.588 17 16.968.001 1.399-.17 2.794-.511 4.151zm-50.891 50.036c2.71-1.355 4.422-4.125 4.422-7.155v-4c0-6.627 5.373-12 12-12s12 5.373 12 12v14.8l-65.7 29.2h-26.3c-2.209 0-4-1.791-4-4s1.791-4 4-4h12c1.242 0 2.467-.289 3.578-.845zm79.736 32.845 4.686-4.686 20.686 20.686-4.686 4.686zm53.1 141.47c-.273.816-.413 1.67-.414 2.53v72h-16v-72c0-1.58-.468-3.124-1.344-4.438l-12.362-18.542 9.019-9.02h17.374l10.16 10.161zm-5.738-45.693-.09.223h-9.359c4.301-29.696 15.149-58.064 31.759-83.053 3.403-5.105 10.3-6.485 15.405-3.081 2.055 1.37 3.595 3.386 4.377 5.729l.357 1.073c1.2 3.574.498 7.513-1.863 10.452l-2.128 2.658c-15.995 19.989-28.955 42.228-38.461 65.999zm-14.7-64.44 5.263-5.263 4.311 2.588c-1.22 2.483-2.4 4.983-3.528 7.511zm57.82 18.78c7.381.984 14.819 1.786 22.252 2.413-1.622 3.155-3.049 6.407-4.273 9.737-1.581-.193-3.177-.395-4.787-.607l-19.315-2.578c1.975-3.031 4.017-6.02 6.127-8.965zm-28.269 51.6c3.801-9.497 8.194-18.747 13.153-27.695l26.2 3.5c.919.122 1.833.24 2.743.354-1.28 7.577-1.544 15.291-.786 22.938l2.328 23.282c1.213 12.061-.622 24.233-5.337 35.4-10.955-3.672-21.599-8.215-31.828-13.587v-.609l7.589-22.768c.959-2.875.211-6.044-1.932-8.187l-12.27-12.27zm182.473 114.283h-16.769l16.769-9.951zm0-28.556-26.3 15.6c-15.634 8.488-33.139 12.941-50.928 12.956h-98.772v-52.191c31.215 15.016 65.412 22.808 100.051 22.8 6.449 0 12.916-.269 19.4-.807 21.567-1.782 41.71-11.484 56.549-27.235zm-122.91-64.944-2.328-23.281c-.647-6.546-.375-13.15.807-19.62 7.388.678 14.791 1.193 22.15 1.517-.45 7.063-.03 14.155 1.249 21.116l4.254 23.008c2.717 14.802.777 30.083-5.553 43.736-8.9-1.096-17.722-2.75-26.415-4.951 5.25-13.173 7.252-27.416 5.836-41.525zm3.219-58.535c1.56-3.581 3.415-7.027 5.546-10.3 5.948.27 11.933.425 17.954.465-1.45 3.605-2.655 7.303-3.609 11.07-6.607-.266-13.25-.671-19.891-1.232zm37.464 17.6c6.128 0 12.279-.13 18.414-.374.409 6.989 1.666 13.902 3.743 20.587l6.967 22.336c4.591 14.779 4.349 30.637-.689 45.269-1.356.192-2.717.354-4.085.468-9.204.768-18.449.947-27.676.537 5.911-15.295 7.472-31.928 4.508-48.055l-4.255-23.006c-1.079-5.863-1.411-11.839-.988-17.785 1.354.012 2.706.025 4.061.025zm-1.057-16.008c1.244-4.017 2.845-7.914 4.784-11.645 5.843-.184 11.716-.484 17.62-.9-1.096 3.981-1.907 8.036-2.425 12.133-6.656.286-13.331.43-19.979.414zm60.045 12.233c.618 3.523 1.463 7.003 2.53 10.418l6.76 21.621c4.022 12.838 4.221 26.569.573 39.518-6.441 6.411-14.059 11.52-22.435 15.045 3.214-14.937 2.519-30.451-2.018-45.041l-6.966-22.336c-1.688-5.433-2.712-11.051-3.049-16.73 8.202-.608 16.431-1.442 24.605-2.493zm-23.756-13.614c.736-4.33 1.874-8.582 3.4-12.7 6.789-.733 13.57-1.617 20.344-2.651-.742 4.287-1.15 8.625-1.221 12.975-7.486.979-15.011 1.785-22.523 2.378zm47 36.651-5.439-17.394c-.812-2.61-1.464-5.268-1.953-7.957 2.452-.4 4.916-.825 7.392-1.274zm0-42.883c-2.808.526-5.604 1.021-8.387 1.484.254-4.566.967-9.095 2.13-13.518 2.095-.4 4.181-.813 6.257-1.239zm0-49.235c-.083-.036-.16-.08-.245-.114-4.089-1.674-8.76.284-10.434 4.372l-7.582 18.517c-.047.114-.086.23-.132.344-6.097 1.04-12.231 1.953-18.4 2.739l5.071-12.5c1.677-4.088-.278-8.761-4.366-10.437-4.088-1.677-8.761.278-10.437 4.366-.008.02-.016.039-.024.059l-8.297 20.446c-4.883.421-9.764.763-14.645 1.024l6.108-11.051c2.058-3.91.556-8.748-3.353-10.805-3.797-1.998-8.494-.645-10.647 3.066l-10.712 19.383c-5.219.059-10.432.027-15.639-.094l6.389-9.583c2.432-3.689 1.413-8.651-2.275-11.083-3.662-2.414-8.585-1.43-11.037 2.207l-11.748 17.616c-6.848-.45-13.701-1.059-20.559-1.828 4.735-6.971 5.942-15.754 3.263-23.744l-.357-1.073c-4.735-14.203-20.087-21.879-34.291-17.145-5.719 1.906-10.639 5.665-13.983 10.681-2.283 3.424-4.466 6.915-6.549 10.474l-8.161-4.9-30.993-30.993-31.47-39.337c2.837-3.641 4.878-7.837 5.991-12.316l1.5-5.987c4.429-17.675-6.308-35.594-23.983-40.023-2.625-.658-5.321-.99-8.028-.99h-32.73c-10.612-.029-20.794 4.189-28.277 11.713l-12.744 12.745-32.751 4.682c-7.55 1.093-14.459 4.852-19.478 10.597v-10.183c-.01-3.914 2.822-7.257 6.685-7.891l34.63-5.771c1.645-.275 3.163-1.056 4.342-2.235l14.664-14.665 46.209-15.4c4.191-1.397 6.456-5.928 5.059-10.119l-1.983-5.95c-3.282-9.861-2.967-20.565.888-30.216l3.027-7.569 55.666 90.456c.172.28.361.549.566.806l24.615 30.768c26.651 33.248 63.944 56.297 105.6 65.266l24.581 5.268c18.123 3.856 36.869 3.709 54.929-.432l36.522-8.429zm0-31.69-40.117 9.257c-15.775 3.616-32.149 3.745-47.979.377l-24.58-5.267c-38.051-8.192-72.118-29.247-96.462-59.617l-24.307-30.383-63.747-103.578c-2.315-3.763-7.243-4.937-11.006-2.621-1.463.9-2.597 2.247-3.235 3.841l-8.933 22.334c-5.039 12.614-5.651 26.564-1.734 39.571l-40.435 13.477c-1.178.393-2.248 1.055-3.127 1.933l-14.187 14.187-32.1 5.35c-11.59 1.899-20.087 11.93-20.056 23.674v34.446c0 4.418 3.582 8 8 8h88v3.056l-41.889 20.944h-10.111c-11.046 0-20 8.954-20 20s8.954 20 20 20h28c.267-.001.534-.015.8-.042.085-.009.17-.025.255-.037.179-.024.358-.048.536-.085.1-.02.2-.048.3-.072.16-.039.319-.078.476-.127.1-.033.208-.071.312-.108s.2-.063.292-.1l34.308-13.723 19.434 25.913 15.6 54.58c.136.476.316.938.537 1.38l7.951 15.9c4.724 9.481 7.188 19.928 7.199 30.521v20.068c-.017 18.492 5.457 36.573 15.729 51.95l9.323 13.982h-25.052v-16h-16v16h-32v-32h-16v32h-32v-16h-16v16h-64v-48h16v-16h-16v-32h32v-16h-32v-32h16v-16h-16v-232h16v-16h-16v-40h40v16h16v-16h32v40h16v-40h96v32h16v-32h32v16h16v-16h32v32h16v-32h32v16h16v-16h40v32h16v-32h32z" data-original="#000000" class="" data-old_color="#000000" fill="#206C79"/><path d="m320 96h16v16h-16z" data-original="#000000" class="" data-old_color="#000000" fill="#206C79"/><path d="m352 96h64v16h-64z" data-original="#000000" class="" data-old_color="#000000" fill="#206C79"/><path d="m320 128h64v16h-64z" data-original="#000000" class="" data-old_color="#000000" fill="#206C79"/><path d="m400 128h16v16h-16z" data-original="#000000" class="" data-old_color="#000000" fill="#206C79"/></g> </svg>
