<?xml version="1.0"?>
<svg xmlns="http://www.w3.org/2000/svg" xmlns:xlink="http://www.w3.org/1999/xlink" version="1.1" id="Capa_1" x="0px" y="0px" viewBox="0 0 512 512" style="enable-background:new 0 0 512 512;" xml:space="preserve" width="512px" height="512px"><g><g>
	<g>
		<g>
			<path d="M422.694,139.281c-6.152-34.167-22.38-65.203-46.928-89.752c-66.038-66.038-173.493-66.038-239.531,0     c-24.549,24.549-40.776,55.585-46.928,89.752c-6.152,34.168-1.769,68.915,12.675,100.484c0.063,0.133,0.127,0.265,0.193,0.395     l132.398,258.734c4.137,8.084,12.348,13.106,21.429,13.106c9.081,0,17.293-5.022,21.429-13.106L409.828,240.16     c0.066-0.13,0.13-0.262,0.191-0.395C424.463,208.196,428.847,173.448,422.694,139.281z M391.921,231.246L259.624,489.783     c-0.986,1.927-2.692,2.215-3.623,2.215c-0.93,0-2.636-0.288-3.623-2.215L120.084,231.246     c-25.711-56.411-13.549-123.727,30.297-167.572c58.241-58.241,153.004-58.239,211.244,0     C405.47,107.519,417.632,174.835,391.921,231.246z" data-original="#000000" class="active-path" data-old_color="#000000" fill="#FFFFFF"/>
			<path d="M359.501,130.615c3.803,11.243,5.73,23.024,5.73,35.015c0,60.229-49.001,109.229-109.23,109.229     c-60.229,0-109.23-49.001-109.23-109.229c0-60.229,49.001-109.23,109.23-109.23c19.102,0,37.897,5,54.352,14.459     c4.789,2.753,10.903,1.102,13.655-3.687c2.752-4.789,1.103-10.903-3.687-13.655C300.838,42.318,278.595,36.398,256,36.398     c-71.259,0-129.233,57.974-129.233,129.233s57.976,129.232,129.235,129.232s129.233-57.973,129.233-129.232     c0-14.175-2.282-28.112-6.785-41.424c-1.77-5.232-7.444-8.041-12.679-6.27C360.539,119.706,357.732,125.383,359.501,130.615z" data-original="#000000" class="active-path" data-old_color="#000000" fill="#FFFFFF"/>
			<path d="M286.124,135.509v-24.93c0-16.609-13.513-30.122-30.122-30.122c-16.609,0-30.122,13.513-30.122,30.122v24.93h-24.93     c-16.609,0-30.122,13.513-30.122,30.122c0,16.609,13.513,30.122,30.122,30.122h24.93v24.929     c0,16.609,13.513,30.122,30.122,30.122s30.122-13.513,30.122-30.122v-24.929h24.93c16.609,0,30.122-13.513,30.122-30.122     c0-16.609-13.513-30.122-30.122-30.122H286.124z M321.172,165.631c0,5.58-4.54,10.119-10.119,10.119h-34.931     c-5.524,0-10.002,4.478-10.002,10.002v34.93c0,5.58-4.54,10.119-10.119,10.119s-10.119-4.54-10.119-10.119v-34.93     c0-5.524-4.478-10.002-10.002-10.002H200.95c-5.58,0-10.119-4.54-10.119-10.119c0-5.579,4.54-10.119,10.119-10.119h34.931     c5.524,0,10.002-4.478,10.002-10.002v-34.931c0-5.58,4.54-10.119,10.119-10.119s10.119,4.54,10.119,10.119v34.931     c0,5.524,4.478,10.002,10.002,10.002h34.931C316.633,155.512,321.172,160.051,321.172,165.631z" data-original="#000000" class="active-path" data-old_color="#000000" fill="#FFFFFF"/>
			<path d="M342.995,98.775c0.54,0.36,1.12,0.67,1.73,0.92c0.6,0.25,1.23,0.44,1.87,0.57c0.64,0.13,1.3,0.19,1.95,0.19     c0.65,0,1.31-0.06,1.95-0.19c0.64-0.13,1.27-0.32,1.87-0.57c0.61-0.25,1.19-0.56,1.73-0.92c0.55-0.36,1.06-0.78,1.52-1.24     c1.86-1.87,2.93-4.441,2.93-7.081c0-0.65-0.06-1.3-0.19-1.95c-0.13-0.64-0.33-1.27-0.58-1.87s-0.55-1.18-0.92-1.73     c-0.36-0.54-0.78-1.06-1.24-1.52c-0.46-0.46-0.97-0.88-1.52-1.24c-0.54-0.36-1.12-0.67-1.73-0.92c-0.6-0.25-1.23-0.44-1.87-0.57     c-1.29-0.26-2.61-0.26-3.901,0c-0.64,0.13-1.27,0.32-1.87,0.57c-0.61,0.25-1.19,0.56-1.73,0.92c-0.55,0.36-1.06,0.78-1.52,1.24     c-0.46,0.46-0.88,0.98-1.24,1.52c-0.36,0.55-0.67,1.13-0.92,1.73c-0.25,0.6-0.44,1.23-0.57,1.87c-0.13,0.65-0.2,1.3-0.2,1.95     c0,2.64,1.07,5.221,2.93,7.081C341.935,97.995,342.445,98.415,342.995,98.775z" data-original="#000000" class="active-path" data-old_color="#000000" fill="#FFFFFF"/>
		</g>
	</g>
</g></g> </svg>
