<?xml version="1.0"?>
<svg xmlns="http://www.w3.org/2000/svg" height="512px" viewBox="0 -51 512 511" width="512px"><g><path d="m430.4375 253.4375c-3.421875-2.339844-8.085938-1.464844-10.425781 1.953125-34.472657 50.363281-89.644531 97-164.011719 138.628906-69.429688-38.871093-122.265625-82.234375-157.054688-128.898437-16.472656-22.097656-28.601562-44.460938-36.328124-66.898438l4.984374-17.375 6.308594 11.175782c1.332032 2.359374 3.828125 3.816406 6.53125 3.816406h42.707032c4.140624 0 7.5-3.359375 7.5-7.5 0-4.144532-3.359376-7.5-7.5-7.5h-38.328126l-12.960937-22.964844c-1.484375-2.632812-4.410156-4.121094-7.40625-3.761719-3.003906.355469-5.5 2.476563-6.332031 5.378907l-2.929688 10.21875c-1.785156-10.0625-2.691406-20.125-2.691406-30.175782 0-25.289062 5.707031-49.523437 16.5-70.085937 1.925781-3.667969.511719-8.199219-3.15625-10.125s-8.203125-.515625-10.125 3.152343c-11.917969 22.703126-18.21875 49.351563-18.21875 77.058594 0 15.789063 2.195312 35.816406 9.496094 58.746094l-5.980469 20.867188-9.5-32.890626c-.929687-3.210937-3.867187-5.417968-7.207031-5.417968h-16.808594c-4.140625 0-7.5 3.355468-7.5 7.5 0 4.140625 3.359375 7.5 7.5 7.5h11.167969l15.167969 52.503906c.925781 3.210938 3.863281 5.421875 7.203124 5.421875h.007813c3.34375-.003906 6.28125-2.21875 7.203125-5.433594l7.648438-26.671875c24.320312 54.832032 78.511718 121.835938 194.449218 186.382813 1.742188.972656 3.695313 1.457031 5.652344 1.457031 1.953125 0 3.910156-.484375 5.65625-1.457031 77.242188-43.003907 134.6875-91.515625 170.730469-144.183594 2.339843-3.417969 1.46875-8.085937-1.949219-10.421875zm0 0" data-original="#000000" class="active-path" data-old_color="#000000" fill="#206C79"/><path d="m153.5 258.6875c0 25.03125 9.121094 49.132812 25.683594 67.863281 2.742187 3.101563 7.480468 3.394531 10.585937.652344 3.101563-2.742187 3.394531-7.484375.652344-10.585937-14.136719-15.992188-21.921875-36.5625-21.921875-57.929688 0-48.25 39.253906-87.503906 87.5-87.503906s87.5 39.253906 87.5 87.503906c0 48.246094-39.253906 87.5-87.5 87.5-15.007812 0-29.808594-3.859375-42.804688-11.164062-3.609374-2.03125-8.183593-.75-10.214843 2.863281-2.027344 3.609375-.746094 8.179687 2.863281 10.210937 15.234375 8.5625 32.582031 13.089844 50.15625 13.089844 56.519531 0 102.5-45.984375 102.5-102.503906 0-56.519532-45.980469-102.5-102.5-102.5s-102.5 45.984375-102.5 102.503906zm0 0" data-original="#000000" class="active-path" data-old_color="#000000" fill="#206C79"/><path d="m161 112.503906c-20.679688 0-37.5 16.820313-37.5 37.5 0 20.679688 16.820312 37.5 37.5 37.5s37.5-16.820312 37.5-37.5c0-20.679687-16.820312-37.5-37.5-37.5zm0 60c-12.40625 0-22.5-10.09375-22.5-22.5s10.09375-22.5 22.5-22.5 22.5 10.09375 22.5 22.5-10.09375 22.5-22.5 22.5zm0 0" data-original="#000000" class="active-path" data-old_color="#000000" fill="#206C79"/><path d="m388.5 150.003906c0-20.679687-16.820312-37.5-37.5-37.5s-37.5 16.820313-37.5 37.5c0 20.679688 16.820312 37.5 37.5 37.5s37.5-16.820312 37.5-37.5zm-60 0c0-12.40625 10.09375-22.5 22.5-22.5s22.5 10.09375 22.5 22.5-10.09375 22.5-22.5 22.5-22.5-10.09375-22.5-22.5zm0 0" data-original="#000000" class="active-path" data-old_color="#000000" fill="#206C79"/><path d="m293.5 114.003906c0-20.679687-16.820312-37.5-37.5-37.5s-37.5 16.820313-37.5 37.5c0 20.675782 16.820312 37.5 37.5 37.5s37.5-16.824218 37.5-37.5zm-60 0c0-12.40625 10.09375-22.5 22.5-22.5s22.5 10.09375 22.5 22.5-10.09375 22.5-22.5 22.5-22.5-10.09375-22.5-22.5zm0 0" data-original="#000000" class="active-path" data-old_color="#000000" fill="#206C79"/><path d="m271.910156 207.109375c-4.242187-4.257813-9.894531-6.605469-15.910156-6.605469-12.40625 0-22.5 10.09375-22.5 22.503906v12.5h-12.5c-12.40625 0-22.5 10.09375-22.5 22.5s10.09375 22.5 22.5 22.5h12.5v12.5c0 12.40625 10.09375 22.5 22.5 22.5s22.5-10.09375 22.5-22.5v-12.5h12.5c6.015625 0 11.667969-2.347656 15.894531-6.585937 4.257813-4.242187 6.605469-9.894531 6.605469-15.914063 0-12.40625-10.09375-22.5-22.5-22.5h-12.5v-12.5c0-6.019531-2.347656-11.671874-6.589844-15.898437zm19.089844 43.398437c4.136719 0 7.5 3.363282 7.5 7.5 0 2-.777344 3.875-2.214844 5.304688-1.40625 1.414062-3.285156 2.195312-5.285156 2.195312h-20c-4.144531 0-7.5 3.355469-7.5 7.5v20c0 4.132813-3.363281 7.5-7.5 7.5s-7.5-3.367187-7.5-7.5v-20c0-4.144531-3.359375-7.5-7.5-7.5h-20c-4.136719 0-7.5-3.367187-7.5-7.5 0-4.136718 3.363281-7.5 7.5-7.5h20c4.140625 0 7.5-3.359374 7.5-7.5v-20c0-4.136718 3.363281-7.5 7.5-7.5 2 0 3.878906.777344 5.308594 2.210938 1.414062 1.410156 2.191406 3.289062 2.191406 5.289062v20c0 4.140626 3.355469 7.5 7.5 7.5zm0 0" data-original="#000000" class="active-path" data-old_color="#000000" fill="#206C79"/><path d="m504.5 196.6875h-34.84375l-2.03125-7.03125c4.558594-16.738281 6.875-33.488281 6.875-50.121094 0-36.691406-10.972656-71.101562-30.894531-96.890625-20.992188-27.175781-50.152344-42.144531-82.105469-42.144531-26.308594 0-50.90625 7.789062-73.105469 23.152344-15.382812 10.640625-26.207031 22.675781-32.394531 30.589844-6.191406-7.914063-17.011719-19.949219-32.394531-30.589844-22.199219-15.363282-46.796875-23.152344-73.105469-23.152344-28.8125 0-54.882812 11.8125-75.386719 34.160156-2.800781 3.054688-2.597656 7.796875.457031 10.597656 3.050782 2.800782 7.792969 2.597657 10.59375-.457031 17.589844-19.167969 39.835938-29.300781 64.335938-29.300781 54.683594 0 87.382812 39.179688 96.105469 51.191406 2.179687 3 5.691406 4.792969 9.394531 4.792969s7.214844-1.792969 9.394531-4.796875c8.722657-12.003906 41.421875-51.1875 96.105469-51.1875 54.953125 0 98 54.480469 98 124.035156 0 6.113282-.359375 12.253906-1.035156 18.40625l-3.976563-13.761718c-.925781-3.210938-3.863281-5.417969-7.203125-5.417969-.003906 0-.007812 0-.007812 0-3.34375.003906-6.28125 2.21875-7.203125 5.433593l-19.351563 67.484376-6.308594-11.179688c-1.328124-2.355469-3.824218-3.8125-6.53125-3.8125h-29.097656c-4.140625 0-7.5 3.359375-7.5 7.5s3.359375 7.5 7.5 7.5h24.71875l12.960938 22.964844c1.339844 2.375 3.847656 3.8125 6.527344 3.8125.292968 0 .585937-.015625.882812-.050782 3-.355468 5.496094-2.476562 6.332031-5.382812l17.101563-59.652344 4.722656 16.34375c-3.847656 13.027344-9.175781 26.0625-15.964844 39.042969-1.921875 3.671875-.503906 8.203125 3.167969 10.125 1.109375.578125 2.296875.855469 3.46875.855469 2.703125 0 5.316406-1.464844 6.652344-4.027344 4.320312-8.253906 8.074219-16.542969 11.289062-24.84375 1.019531.515625 2.167969.8125 3.371094.8125h40.484375c4.144531 0 7.5-3.359375 7.5-7.5 0-4.144531-3.355469-7.5-7.5-7.5zm0 0" data-original="#000000" class="active-path" data-old_color="#000000" fill="#206C79"/></g> </svg>
