<?xml version="1.0"?>
<svg xmlns="http://www.w3.org/2000/svg" height="512px" viewBox="0 0 496 496" width="512px"><g><path d="m151.644531 96c22.054688 0 40-21.527344 40-48s-17.945312-48-40-48c-22.058593 0-40 21.527344-40 48s17.941407 48 40 48zm0-80c13.230469 0 24 14.351562 24 32s-10.769531 32-24 32c-13.234375 0-24-14.351562-24-32s10.765625-32 24-32zm0 0" data-original="#000000" class="active-path" data-old_color="#000000" fill="#206C79"/><path d="m78.105469 126.464844c7.800781-7.800782 11.355469-18.746094 10.007812-30.824219-1.261719-11.417969-6.832031-22.570313-15.664062-31.402344-18.710938-18.71875-46.636719-21.246093-62.230469-5.664062-15.589844 15.601562-13.054688 43.515625 5.65625 62.226562 10.472656 10.472657 23.824219 15.871094 36.289062 15.871094 9.808594.007813 19.070313-3.34375 25.941407-10.207031zm-56.574219-56.578125c3.808594-3.808594 9.007812-5.648438 14.679688-5.648438 8.257812 0 17.519531 3.90625 24.921874 11.304688 6.269532 6.28125 10.207032 14.042969 11.078126 21.855469.800781 7.152343-1.136719 13.457031-5.425782 17.746093-9.351562 9.34375-27.125 6.824219-39.597656-5.65625s-15.007812-30.242187-5.65625-39.601562zm0 0" data-original="#000000" class="active-path" data-old_color="#000000" fill="#206C79"/><path d="m251.121094 136.679688c12.472656 0 25.824218-5.40625 36.289062-15.871094 18.710938-18.710938 21.25-46.632813 5.65625-62.222656-15.589844-15.609376-43.519531-13.042969-62.222656 5.652343-8.832031 8.832031-14.402344 19.992188-15.664062 31.402344-1.34375 12.078125 2.207031 23.023437 10.007812 30.824219 6.863281 6.871094 16.128906 10.214844 25.933594 10.214844zm-20.046875-39.28125c.863281-7.8125 4.808593-15.574219 11.082031-21.855469 7.398438-7.398438 16.65625-11.304688 24.917969-11.304688 5.671875 0 10.871093 1.839844 14.679687 5.648438 9.351563 9.359375 6.824219 27.128906-5.65625 39.601562-12.480468 12.472657-30.253906 15-39.597656 5.65625-4.296875-4.289062-6.226562-10.59375-5.425781-17.746093zm0 0" data-original="#000000" class="active-path" data-old_color="#000000" fill="#206C79"/><path d="m470.378906 400c-6.574218 0-13.007812 2.664062-17.65625 7.3125l-5.375 5.375-12.6875-12.6875 16-16-115.3125-115.3125-12 12-20-20-16 16-16.578125-16.574219c.546875-3.050781.882813-6.160156.882813-9.359375v-18.753906c0-66.167969-53.832032-120-120-120-66.167969 0-120 53.832031-120 120v18.742188c0 29.363281 23.886718 53.257812 53.253906 53.257812 14.226562 0 27.59375-5.535156 37.65625-15.601562l7.433594-7.429688c5.695312-5.703125 13.582031-8.96875 21.648437-8.96875 8.0625 0 15.949219 3.265625 21.65625 8.96875l7.429688 7.429688c10.066406 10.066406 23.433593 15.601562 37.65625 15.601562 19.914062 0 37.28125-11 46.417969-27.230469l11.230468 11.230469-16 16 20 20-12 12 115.3125 115.3125 16-16 12.6875 12.6875-5.375 5.375c-4.648437 4.648438-7.3125 11.082031-7.3125 17.65625 0 13.769531 11.199219 24.96875 24.96875 24.96875 6.574219 0 13.007813-2.664062 17.65625-7.3125l46.0625-46.0625c4.648438-4.648438 7.3125-11.082031 7.3125-17.65625 0-13.769531-11.199218-24.96875-24.96875-24.96875zm-251.992187-112c-9.953125 0-19.304688-3.871094-26.34375-10.910156l-7.433594-7.433594c-8.679687-8.679688-20.695313-13.65625-32.964844-13.65625-12.273437 0-24.289062 4.976562-32.96875 13.65625l-7.433593 7.433594c-7.039063 7.039062-16.390626 10.910156-26.34375 10.910156-20.542969 0-37.253907-16.710938-37.253907-37.257812v-18.742188c0-57.34375 46.65625-104 104-104s104 46.65625 104 104v12.984375l-50.640625-50.640625-11.3125 11.3125 59.152344 59.152344c-5.5625 13.582031-18.890625 23.191406-34.457031 23.191406zm64.273437 16 20.6875-20.6875 8.6875 8.6875-20.6875 20.6875zm80 104 18.34375-18.34375-11.3125-11.3125-18.34375 18.34375-12.6875-12.6875 18.34375-18.34375-11.3125-11.3125-18.34375 18.34375-12.6875-12.6875 18.34375-18.34375-11.3125-11.3125-18.34375 18.34375-12.6875-12.6875 44.6875-44.6875 92.6875 92.6875-44.6875 44.6875zm48 16 12.6875-12.6875 12.6875 12.6875-12.6875 12.6875zm66.0625 7.3125-46.0625 46.0625c-1.671875 1.671875-3.984375 2.625-6.34375 2.625-4.945312 0-8.96875-4.023438-8.96875-8.96875 0-2.359375.953125-4.671875 2.625-6.34375l46.0625-46.0625c1.671875-1.671875 3.984375-2.625 6.34375-2.625 4.945313 0 8.96875 4.023438 8.96875 8.96875 0 2.359375-.953125 4.671875-2.625 6.34375zm0 0" data-original="#000000" class="active-path" data-old_color="#000000" fill="#206C79"/></g> </svg>
