<?xml version="1.0"?>
<svg xmlns="http://www.w3.org/2000/svg" viewBox="0 0 512 512" width="512px" height="512px"><g><g id="outline"><path d="M425.705,86.294A240,240,0,1,0,86.3,425.706a240.192,240.192,0,0,0,252.482,55.609A103.955,103.955,0,0,0,481.315,338.776a240.191,240.191,0,0,0-55.61-252.482ZM256,480A224,224,0,0,1,97.608,97.608,224.062,224.062,0,0,1,469.781,323.045a104.919,104.919,0,0,0-13.043-12.377A208.423,208.423,0,0,0,464,256c0-114.691-93.309-208-208-208S48,141.309,48,256s93.309,208,208,208a208.3,208.3,0,0,0,54.667-7.264,105.01,105.01,0,0,0,12.377,13.045A223.267,223.267,0,0,1,256,480ZM168,264h3.719l4.75,7.125A37.815,37.815,0,0,0,200,287.151V296a16.019,16.019,0,0,1-16,16,8,8,0,0,0-8,8v29.1a27.917,27.917,0,0,1-4.7,15.532l-9.954,14.93A8,8,0,0,0,160,384v24a7.994,7.994,0,0,0,.845,3.578L168,425.889v.723a193.378,193.378,0,0,1-78.511-75.093l29.457-51.55A8,8,0,0,0,120,296V270.957c0-.518.008-1.035.026-1.561a44.111,44.111,0,0,1,10.7-26.847l1.285-1.511,4.225,16.9A8,8,0,0,0,144,264h24Zm15.155,156.422-2.1-4.21L192,408v29.018q-4.042-1.434-8-3.04V424A7.994,7.994,0,0,0,183.155,420.422Zm20.423-35.577a8,8,0,0,0-8.378.755L176,400V386.422l8.61-12.915A43.865,43.865,0,0,0,192,349.1V326.988A32.059,32.059,0,0,0,216,296V280a8,8,0,0,0-8-8,21.854,21.854,0,0,1-18.219-9.75l-7.125-10.688a8,8,0,0,0-3.854-3.05L196.417,230.9l2.656-.567,36.489,24.326A8,8,0,0,0,240,256h24.84l6.687,60.185a7.976,7.976,0,0,1-.8,4.463l-13.042,26.085L227.2,369.6A8,8,0,0,0,224,376v69.319q-8.117-1.368-16-3.394V392A8,8,0,0,0,203.578,384.845ZM264,200v40H242.422l-25.58-17.053A37.944,37.944,0,0,0,232,192.57V184H216v8.57a21.964,21.964,0,0,1-16,21.153V171.314L227.313,144h33.374l21.656,21.657A8,8,0,0,0,288,168h16v12a12.013,12.013,0,0,1-12,12H272A8,8,0,0,0,264,200ZM240,380l16-12v80c-5.388,0-10.723-.235-16-.672Zm32-26.111,13.041-26.084a23.96,23.96,0,0,0,2.389-13.385L280,247.557V208h12a28.032,28.032,0,0,0,28-28V160a8,8,0,0,0-8-8H291.313l-21.656-21.657A8,8,0,0,0,264,128H224a8,8,0,0,0-5.657,2.343l-32,32A8,8,0,0,0,184,168v52.686L156.686,248h-6.44l-6.485-25.94a8,8,0,0,0-13.856-3.243l-11.366,13.367a60.155,60.155,0,0,0-14.5,36.659c-.024.7-.036,1.409-.036,2.114v22.918L80.79,334.492A190.884,190.884,0,0,1,64,256C64,150.131,150.131,64,256,64s192,86.131,192,192a192.775,192.775,0,0,1-5.355,45.194,103.958,103.958,0,0,0-141.452,141.45A191.553,191.553,0,0,1,272,447.334ZM392,480a88,88,0,1,1,88-88A88.1,88.1,0,0,1,392,480Z" data-original="#000000" class="active-path" data-old_color="#000000" fill="#206C79"/><rect x="240" y="160" width="16" height="16" data-original="#000000" class="active-path" data-old_color="#000000" fill="#206C79"/><rect x="152" y="280" width="16" height="16" data-original="#000000" class="active-path" data-old_color="#000000" fill="#206C79"/><path d="M424,336a8,8,0,0,0-8-8H376a8,8,0,0,0-8,8v32H336a8,8,0,0,0-8,8v40a8,8,0,0,0,8,8h32v32a8,8,0,0,0,8,8h40a8,8,0,0,0,8-8V427.375q1.706-1.674,3.376-3.375H456a8,8,0,0,0,8-8V376a8,8,0,0,0-8-8H424Zm24,48v24H416a8,8,0,0,0-8,8v32H384V416a8,8,0,0,0-8-8H344V384h32a8,8,0,0,0,8-8V344h24v32a8,8,0,0,0,8,8Z" data-original="#000000" class="active-path" data-old_color="#000000" fill="#206C79"/></g></g> </svg>
