<?xml version="1.0"?>
<svg xmlns="http://www.w3.org/2000/svg" id="Capa_1" enable-background="new 0 0 480 480" height="512px" viewBox="0 0 480 480" width="512px"><g><circle cx="120" cy="224" r="11" data-original="#000000" class="active-path" data-old_color="#000000" fill="#206C79"/><circle cx="187" cy="224" r="11" data-original="#000000" class="active-path" data-old_color="#000000" fill="#206C79"/><path d="m40 179.313v31.087c-.036 11.374 6.394 21.78 16.583 26.835l15.417 7.709v19.056c0 1.018.194 2.026.572 2.971l14.812 37.029-14.2 35.5-18.151 18.153c-4.517 4.493-7.05 10.606-7.033 16.977v28.12c-.029 10.612 4.189 20.794 11.713 28.277l6.922 6.922c-6.67 4.439-10.665 11.93-10.635 19.941v14.11c0 4.418 3.582 8 8 8h176c4.418 0 8-3.582 8-8v-12.47c.008-9.792-5.941-18.605-15.026-22.26l7.026-5.27c7.808-5.888 13.201-14.421 15.167-24h18.833c3.312.003 5.997 2.688 6 6v34c0 17.673 14.327 32 32 32s32-14.327 32-32v-144.8c18.612-3.826 31.978-20.199 32-39.2v-80c0-4.418-3.582-8-8-8h-24v-17.013c17.114-4.411 27.412-21.859 23.002-38.973-2.908-11.283-11.719-20.094-23.002-23.002v-49.012h48v379.719l-.468.312c-14.716 9.788-23.551 26.296-23.532 43.969 0 4.418 3.582 8 8 8h80c4.418 0 8-3.582 8-8 .019-17.674-8.816-34.182-23.532-43.97l-.468-.312v-419.718c0-4.418-3.582-8-8-8h-104c-13.255 0-24 10.745-24 24s10.745 24 24 24v56c0 4.418 3.582 8 8 8 8.837 0 16 7.164 15.999 16.001 0 8.837-7.164 16-16.001 15.999-4.553 0-8.891-1.941-11.926-5.335-2.947-3.292-8.004-3.572-11.297-.626-3.292 2.947-3.572 8.004-.625 11.297 4.218 4.705 9.732 8.058 15.85 9.638v17.026h-24c-4.418 0-8 3.582-8 8v80c.022 19.001 13.388 35.374 32 39.2v144.8c0 8.837-7.163 16-16 16s-16-7.163-16-16v-34c-.014-12.145-9.855-21.986-22-22h-18v-17.37c.017-6.371-2.516-12.484-7.033-16.977l-18.149-18.153-14.2-35.5 14.812-37.029c.377-.945.571-1.953.57-2.971v-19.056l15.421-7.711c10.187-5.056 16.616-15.461 16.579-26.833v-31.087l11.117-11.113c8.277-8.233 12.917-19.435 12.883-31.11v-31.47c.002-14.148-11.466-25.618-25.614-25.62-.002 0-.004 0-.006 0-5.991.009-11.791 2.108-16.4 5.935l-34.457 28.715c-7.312 6.071-11.537 15.086-11.523 24.59v11.56c-.231-.037-.461-.081-.692-.113l-.929-.142c-30.79-4.391-62.048-4.386-92.837.012l-.755.115c-.264.038-.525.086-.787.129v-11.561c.014-9.502-4.209-18.515-11.519-24.586l-34.473-28.731c-4.607-3.82-10.403-5.915-16.388-5.923-14.148-.002-25.618 11.466-25.62 25.614v.006 31.47c-.034 11.675 4.605 22.877 12.883 31.11zm391.593 262.03c7.911 5.262 13.477 13.381 15.533 22.657h-62.252c2.055-9.276 7.622-17.395 15.533-22.656l2.015-1.344h27.156zm-23.593-17.343v-376h16v376zm-80-392c-4.418 0-8-3.582-8-8s3.582-8 8-8h96v16zm-16 160h48v16h-48zm0 72v-40h48v40c0 13.255-10.745 24-24 24s-24-10.745-24-24zm-224 200h-16v-6.11c-.011-3.032 1.701-5.807 4.417-7.155l7.161-3.58c.833-.418 1.587-.978 2.228-1.655l2.194 4.389zm120-33.889-7.155 14.311c-.556 1.111-.845 2.336-.845 3.578v16h-16v-16c0-1.242-.289-2.467-.845-3.578l-7.155-14.311v-6.111h32zm0-22.111h-32v-16h32zm24 56h-16v-14.111l.624-1.249 9.9 3.3c3.269 1.087 5.475 4.145 5.476 7.59zm-1.6-44.8-6.4 4.8v-16h14.611c-1.576 4.459-4.432 8.355-8.211 11.2zm-12.057-69.543 19.31 19.31c1.508 1.498 2.353 3.538 2.347 5.663v17.37h-16v-8c0-4.418-3.582-8-8-8h-48c-4.418 0-8 3.582-8 8v48c0 1.242.289 2.467.845 3.578l7.155 14.311v14.111h-32v-14.111l7.155-14.311c.556-1.111.845-2.336.845-3.578v-40c0-4.418-3.582-8-8-8s-8 3.582-8 8v38.111l-7.155 14.311c-.556 1.111-.845 2.336-.845 3.578v16h-16v-16c0-1.242-.289-2.467-.845-3.578l-7.155-14.311v-38.111c0-4.418-3.582-8-8-8s-8 3.582-8 8v36.687l-8.973-8.974c-4.484-4.509-7.009-10.604-7.027-16.963v-28.12c-.006-2.125.839-4.165 2.347-5.663l19.31-19.31c.766-.766 1.368-1.68 1.771-2.686l9.037-22.593c12.372 14.143 33.866 15.578 48.009 3.206 2.262-1.979 4.252-4.248 5.917-6.749l1.609-2.413 1.608 2.413c10.416 15.64 31.538 19.875 47.178 9.46 2.501-1.666 4.77-3.655 6.749-5.917l9.037 22.593c.403 1.006 1.005 1.92 1.771 2.686zm-74.9-47.24-6.363 9.543c-5.529 8.298-16.739 10.543-25.037 5.013-5.026-3.349-8.045-8.99-8.043-15.029v-11.888c.012-9.967 8.089-18.044 18.056-18.056h7.32c-4.348 12.276 1.896 25.779 14.065 30.417zm.557-22.417c0-4.418 3.582-8 8-8s8 3.582 8 8-3.582 8-8 8c-4.416-.005-7.995-3.584-8-8zm30.624-8h7.32c9.967.012 18.044 8.089 18.056 18.056v11.888c0 9.972-8.084 18.056-18.056 18.056-6.037 0-11.674-3.017-15.023-8.04l-6.362-9.543c12.169-4.638 18.413-18.141 14.065-30.417zm41.376-132.76c-.008-4.754 2.104-9.264 5.762-12.3l34.446-28.708c1.735-1.439 3.918-2.229 6.172-2.232 5.312-.001 9.619 4.304 9.62 9.616v.004 31.47c.02 7.428-2.933 14.555-8.2 19.793l-13.46 13.46c-1.499 1.501-2.341 3.536-2.34 5.657v34.4c.017 5.308-2.984 10.165-7.738 12.525l-8.262 4.131v-38.626c-.002-2.856-.323-5.703-.957-8.487l23.357-31.143c1.039-1.385 1.6-3.069 1.6-4.8v-16c0-4.418-3.582-8-8-8s-8 3.582-8 8v13.333l-16.953 22.6c-.692-.818-1.414-1.617-2.18-2.384l-.14-.14c-1.465-1.455-3.046-2.789-4.727-3.987zm-121.553 33.627.14-.14c3.386-3.382 7.781-5.568 12.521-6.229l.771-.118c29.239-4.173 58.923-4.178 88.163-.012l.945.144c4.704.677 9.063 2.857 12.426 6.215l.14.14c4.141 4.118 6.463 9.723 6.447 15.563v74.029l-4.373 10.932c-6.026-10.733-17.374-17.381-29.683-17.391h-59.888c-12.309.01-23.657 6.658-29.683 17.391l-4.373-10.932v-74.029c-.016-5.84 2.306-11.445 6.447-15.563zm-62.447-67.247c-.001-5.312 4.304-9.619 9.616-9.62h.004c2.249.004 4.426.791 6.158 2.226l34.465 28.723c3.654 3.035 5.764 7.541 5.757 12.291v18.183c-1.682 1.199-3.263 2.534-4.727 3.99l-.14.14c-.766.767-1.488 1.566-2.18 2.384l-16.953-22.604v-13.333c0-4.418-3.582-8-8-8s-8 3.582-8 8v16c0 1.731.561 3.415 1.6 4.8l23.357 31.143c-.634 2.784-.955 5.631-.957 8.487v38.626l-8.258-4.129c-4.756-2.36-7.759-7.217-7.742-12.527v-34.4c0-2.122-.843-4.157-2.343-5.657l-13.457-13.46c-5.267-5.238-8.22-12.365-8.2-19.793z" data-original="#000000" class="active-path" data-old_color="#000000" fill="#206C79"/><path d="m344 272v-8h8v-16h-8v-8h-16v8h-8v16h8v8z" data-original="#000000" class="active-path" data-old_color="#000000" fill="#206C79"/><path d="m296 320h16v16h-16z" data-original="#000000" class="active-path" data-old_color="#000000" fill="#206C79"/><path d="m296 352h16v32h-16z" data-original="#000000" class="active-path" data-old_color="#000000" fill="#206C79"/></g> </svg>
